<svg id="89a3cd7a-7b08-4425-9d80-2e6c2fb05141" data-name="ca820344-6e8a-4d47-bee7-e658037e593e" xmlns="http://www.w3.org/2000/svg" xmlns:xlink="http://www.w3.org/1999/xlink" viewBox="0 0 350 350">
  <defs>
    <linearGradient id="3520412f-bb8d-43c1-8648-3aa3205fc462" data-name="Безымянный градиент" x1="-32.03" y1="55.47" x2="382.03" y2="294.53" gradientTransform="matrix(1, 0, 0, -1, 0, 350)" gradientUnits="userSpaceOnUse">
      <stop offset="0" stop-color="#c165dd"/>
      <stop offset="0.17" stop-color="#b85fe0"/>
      <stop offset="0.45" stop-color="#9e50e8"/>
      <stop offset="0.8" stop-color="#7536f6"/>
      <stop offset="0.99" stop-color="#5c27fe"/>
    </linearGradient>
  </defs>
  <title>Add_2_ex_2</title>
  <rect width="350" height="350" fill="url(#3520412f-bb8d-43c1-8648-3aa3205fc462)"/>
  <path d="M18.5,224h154a4.49,4.49,0,0,1,4.5,4.5h0a4.49,4.49,0,0,1-4.5,4.5H18.5a4.49,4.49,0,0,1-4.5-4.5h0A4.49,4.49,0,0,1,18.5,224Z" fill="#fff"/>
  <rect x="68" y="135" width="49" height="84" rx="12" ry="12" fill="none" stroke="#18ff0a" stroke-miterlimit="10" stroke-width="2"/>
  <g>
    <path d="M109.6,60.6a31.78,31.78,0,0,0-6.6.4C89.2,63.3,81.9,73.4,80.4,84.1h.3a19.37,19.37,0,0,1,15.7-7.5c11.5,0,19.6,8.3,19.6,21,0,11.9-8.1,22.9-21.6,22.9-13.9,0-23-10.8-23-27.7,0-12.8,4.6-22.9,11-29.3a35.38,35.38,0,0,1,20.8-9.6,42.25,42.25,0,0,1,6.4-.5Zm-2.5,37.5c0-9.3-5.3-14.9-13.4-14.9a14.48,14.48,0,0,0-12.6,8,7.49,7.49,0,0,0-1,3.9c.2,10.7,5.1,18.6,14.3,18.6C102,113.7,107.1,107.4,107.1,98.1Z" fill="#fff"/>
    <path d="M151,119.4V101.7H120.8V95.9l29-41.5h9.5V94.8h9.1v6.9h-9.1v17.7Zm0-24.6V73.1q0-5.1.3-10.2H151c-2,3.8-3.6,6.6-5.4,9.6L129.7,94.6v.2Z" fill="#fff"/>
  </g>
  <g>
    <path d="M74.6,201.3A29.41,29.41,0,0,0,89,205.4c11.3,0,14.8-7.2,14.7-12.6-.1-9.1-8.3-13-16.8-13H82v-6.6h4.9c6.4,0,14.5-3.3,14.5-11,0-5.2-3.3-9.8-11.4-9.8a23.87,23.87,0,0,0-13,4.3l-2.3-6.4c3.4-2.5,10-5,17-5,12.8,0,18.6,7.6,18.6,15.5,0,6.7-4,12.4-12,15.3v.2c8,1.6,14.5,7.6,14.5,16.7,0,10.4-8.1,19.5-23.7,19.5-7.3,0-13.7-2.3-16.9-4.4Z" fill="#fff"/>
    <path d="M123.8,211.4V206l6.9-6.7c16.6-15.8,24.1-24.2,24.2-34,0-6.6-3.2-12.7-12.9-12.7-5.9,0-10.8,3-13.8,5.5l-2.8-6.2a28.52,28.52,0,0,1,18.4-6.6c14,0,19.9,9.6,19.9,18.9,0,12-8.7,21.7-22.4,34.9l-5.2,4.8v.2h29.2v7.3Z" fill="#fff"/>
  </g>
  <g>
    <path d="M184.8,138.6a12.84,12.84,0,0,0,2.44-.11,8.43,8.43,0,0,0,4.67-2.16,9.8,9.8,0,0,0,3-5.94h-.1a6.56,6.56,0,0,1-5.25,2.41c-4,0-6.59-3-6.59-6.83a7.65,7.65,0,0,1,7.62-7.93c4.56,0,7.37,3.71,7.37,9.4,0,4.91-1.64,8.34-3.84,10.47a11.13,11.13,0,0,1-6.49,3,13.82,13.82,0,0,1-2.78.18Zm1.1-12.84c0,2.78,1.68,4.74,4.29,4.74a5,5,0,0,0,4.39-2.34,1.92,1.92,0,0,0,.28-1.1c0-3.8-1.41-6.72-4.57-6.72C187.72,120.34,185.9,122.6,185.9,125.76Z" fill="#fff"/>
    <path d="M210,140.72v-6.07H199.63v-2l10-14.24h3.26v13.86H216v2.37h-3.12v6.07Zm0-8.44v-7.45c0-1.16,0-2.33.1-3.5H210c-.68,1.31-1.23,2.27-1.85,3.3l-5.46,7.58v.07Z" fill="#fff"/>
  </g>
  <path d="M232.4,120.64v8.07h7.76v2.06H232.4v8.13h-2.19v-8.13h-7.76v-2.06h7.76v-8.07Z" fill="#fff"/>
  <path d="M247.12,140.72v-1.85l2.37-2.3c5.7-5.42,8.27-8.3,8.31-11.67,0-2.26-1.1-4.36-4.43-4.36a7.59,7.59,0,0,0-4.74,1.89l-1-2.13A9.82,9.82,0,0,1,254,118c4.8,0,6.83,3.29,6.83,6.48,0,4.12-3,7.45-7.69,12l-1.79,1.65v.07h10v2.5Z" fill="#fff"/>
  <path d="M269.33,127.33v-2.06H287v2.06Zm0,6.73V132H287v2.06Z" fill="#fff"/>
  <g>
    <path d="M295.54,139.21a12.73,12.73,0,0,0,2.44-.1,8.4,8.4,0,0,0,4.66-2.16,9.84,9.84,0,0,0,3-5.94h-.11a6.54,6.54,0,0,1-5.25,2.4c-4,0-6.59-3-6.59-6.83a7.65,7.65,0,0,1,7.62-7.93c4.57,0,7.38,3.71,7.38,9.41,0,4.9-1.65,8.34-3.84,10.46a11.11,11.11,0,0,1-6.49,3,13.75,13.75,0,0,1-2.78.17Zm1.1-12.83c0,2.78,1.68,4.73,4.29,4.73a5,5,0,0,0,4.39-2.33,2,2,0,0,0,.28-1.1c0-3.81-1.41-6.73-4.57-6.73C298.46,121,296.64,123.22,296.64,126.38Z" fill="#fff"/>
    <path d="M324.13,121.16a11.08,11.08,0,0,0-2.27.14,9.08,9.08,0,0,0-7.76,7.92h.11a6.66,6.66,0,0,1,5.39-2.57c3.94,0,6.72,2.85,6.72,7.21,0,4.08-2.78,7.86-7.41,7.86S311,138,311,132.21a14,14,0,0,1,3.77-10.05,12.13,12.13,0,0,1,7.14-3.3,14.13,14.13,0,0,1,2.2-.17ZM323.27,134c0-3.19-1.82-5.11-4.6-5.11a5,5,0,0,0-4.33,2.74A2.62,2.62,0,0,0,314,133c.07,3.67,1.75,6.38,4.91,6.38C321.52,139.38,323.27,137.22,323.27,134Z" fill="#fff"/>
  </g>
  <path d="M47,95.8v23.5H69.6v6H47V149H40.6V125.3H18v-6H40.6V95.8Z" fill="#fff"/>
  <path d="M308.49,156.5c0,79.59-51,144-114,144" fill="none" stroke="#68ff55" stroke-linecap="round" stroke-linejoin="round" stroke-width="4"/>
  <g>
    <path d="M77.6,318.2a36.72,36.72,0,0,0,7.1-.3,24.52,24.52,0,0,0,13.6-6.3c4.3-3.9,7.4-9.6,8.6-17.3h-.3a19.08,19.08,0,0,1-15.3,7c-11.7,0-19.2-8.8-19.2-19.9,0-12.3,8.9-23.1,22.2-23.1s21.5,10.8,21.5,27.4c0,14.3-4.8,24.3-11.2,30.5a32.49,32.49,0,0,1-18.9,8.7,41,41,0,0,1-8.1.5Zm3.2-37.4c0,8.1,4.9,13.8,12.5,13.8a14.55,14.55,0,0,0,12.8-6.8,5.81,5.81,0,0,0,.8-3.2c0-11.1-4.1-19.6-13.3-19.6C86.1,265,80.8,271.6,80.8,280.8Z" fill="#fff"/>
    <path d="M160.9,265.6a31.78,31.78,0,0,0-6.6.4c-13.8,2.3-21.1,12.4-22.6,23.1h.3a19.37,19.37,0,0,1,15.7-7.5c11.5,0,19.6,8.3,19.6,21,0,11.9-8.1,22.9-21.6,22.9-13.9,0-23-10.8-23-27.7,0-12.8,4.6-22.9,11-29.3a35.38,35.38,0,0,1,20.8-9.6,42.25,42.25,0,0,1,6.4-.5Zm-2.5,37.5c0-9.3-5.3-14.9-13.4-14.9a14.48,14.48,0,0,0-12.6,8,7.49,7.49,0,0,0-1,3.9c.2,10.7,5.1,18.6,14.3,18.6C153.3,318.7,158.4,312.4,158.4,303.1Z" fill="#fff"/>
  </g>
</svg>
