<svg id="803e5dce-8c09-4996-af78-6119b2c357ca" data-name="498d7f96-51f1-4029-b82f-c79215199a10" xmlns="http://www.w3.org/2000/svg" xmlns:xlink="http://www.w3.org/1999/xlink" viewBox="0 0 350 350">
  <defs>
    <linearGradient id="2db93838-272c-4660-9de5-c903dbb99146" data-name="Безымянный градиент" x1="294.53" y1="382.03" x2="55.47" y2="-32.03" gradientTransform="matrix(1, 0, 0, -1, 0, 350)" gradientUnits="userSpaceOnUse">
      <stop offset="0" stop-color="#ffe324"/>
      <stop offset="0.3" stop-color="#ffda27"/>
      <stop offset="0.81" stop-color="#ffc02f"/>
      <stop offset="0.99" stop-color="#ffb533"/>
    </linearGradient>
  </defs>
  <title>Mul_2_ex_2</title>
  <rect width="350" height="350" fill="url(#2db93838-272c-4660-9de5-c903dbb99146)"/>
  <path d="M19.8,224H218.11c3.21,0,5.8,2,5.8,4.5h0c0,2.49-2.59,4.5-5.8,4.5H19.8c-3.21,0-5.8-2-5.8-4.5h0C14,226,16.59,224,19.8,224Z" fill="#fff"/>
  <g>
    <path d="M72.2,133.74v-5.65l7.22-7c17.35-16.52,25.19-25.3,25.29-35.54,0-6.9-3.34-13.28-13.48-13.28-6.17,0-11.29,3.14-14.43,5.75l-2.92-6.48a29.81,29.81,0,0,1,19.23-6.9c14.64,0,20.8,10,20.8,19.76,0,12.54-9.09,22.68-23.41,36.48l-5.44,5v.21h30.53v7.63Z" fill="#fff"/>
    <path d="M145.8,74.36h-.21l-11.82,6.38-1.77-7,14.84-7.95h7.84v68H145.8Z" fill="#fff"/>
  </g>
  <g>
    <path d="M74.4,208.18a30.77,30.77,0,0,0,15,4.29c11.81,0,15.47-7.53,15.37-13.17-.11-9.52-8.68-13.59-17.56-13.59H82.13v-6.9h5.13c6.69,0,15.15-3.45,15.15-11.5,0-5.44-3.45-10.25-11.91-10.25a24.93,24.93,0,0,0-13.59,4.5l-2.41-6.69c3.56-2.62,10.46-5.23,17.77-5.23,13.39,0,19.45,8,19.45,16.2,0,7-4.18,13-12.55,16v.21c8.37,1.67,15.16,7.94,15.16,17.45,0,10.88-8.47,20.39-24.77,20.39-7.63,0-14.33-2.4-17.67-4.6Z" fill="#fff"/>
    <path d="M125.83,218.74v-5.65l7.21-7c17.36-16.52,25.2-25.3,25.3-35.54,0-6.9-3.34-13.28-13.48-13.28-6.17,0-11.29,3.14-14.43,5.75l-2.93-6.48a29.86,29.86,0,0,1,19.24-6.9c14.63,0,20.8,10,20.8,19.76,0,12.54-9.09,22.68-23.42,36.48l-5.43,5v.21h30.52v7.63Z" fill="#fff"/>
  </g>
  <path d="M38.86,127.45l5.37,8.08c1.4,2.1,2.57,4.05,3.81,6.15h.23c1.25-2.26,2.49-4.2,3.74-6.22l5.28-8h7.39L51.85,145.64l13.22,19.44H57.29l-5.52-8.47c-1.48-2.18-2.72-4.28-4-6.54h-.16c-1.24,2.26-2.56,4.28-4,6.54l-5.45,8.47H30.62L44,145.87,31.24,127.45Z" fill="#fff"/>
  <path d="M66.44,264.27a33.45,33.45,0,0,0-6.9.42c-14.42,2.4-22,13-23.62,24.15h.31A20.24,20.24,0,0,1,52.64,281c12,0,20.49,8.67,20.49,21.95,0,12.44-8.46,23.94-22.58,23.94-14.53,0-24-11.29-24-29,0-13.38,4.81-23.94,11.5-30.63a36.94,36.94,0,0,1,21.74-10,44.12,44.12,0,0,1,6.69-.53Zm-2.61,39.2c0-9.72-5.54-15.57-14-15.57a15.14,15.14,0,0,0-13.17,8.36,7.78,7.78,0,0,0-1,4.08c.21,11.18,5.34,19.44,14.95,19.44C58.5,319.78,63.83,313.19,63.83,303.47Z" fill="#55b4ff"/>
  <path d="M112.69,305.77l-.2-2.71c-.63-5.65,1.25-11.82,6.48-18.09,4.7-5.54,7.31-9.62,7.31-14.32,0-5.33-3.34-8.89-9.93-9a18.52,18.52,0,0,0-10.55,3.24l-2.51-6.59c3.45-2.51,9.4-4.18,14.95-4.18,12,0,17.45,7.42,17.45,15.37,0,7.11-4,12.23-9,18.19-4.6,5.43-6.27,10-6,15.37l.11,2.71Zm-2.29,14.64c0-3.87,2.61-6.59,6.27-6.59s6.16,2.72,6.16,6.59c0,3.66-2.4,6.48-6.27,6.48C112.9,326.89,110.4,324.07,110.4,320.41Z" fill="#fff"/>
  <path d="M178.69,305.77l-.2-2.71c-.63-5.65,1.25-11.82,6.48-18.09,4.7-5.54,7.31-9.62,7.31-14.32,0-5.33-3.34-8.89-9.93-9a18.52,18.52,0,0,0-10.55,3.24l-2.51-6.59c3.45-2.51,9.4-4.18,15-4.18,12,0,17.45,7.42,17.45,15.37,0,7.11-4,12.23-9,18.19-4.6,5.43-6.27,10-6,15.37l.11,2.71Zm-2.3,14.64c0-3.87,2.62-6.59,6.28-6.59s6.16,2.72,6.16,6.59c0,3.66-2.4,6.48-6.27,6.48C178.9,326.89,176.39,324.07,176.39,320.41Z" fill="#fff" stroke="#fff" stroke-miterlimit="10"/>
  <line x1="84" y1="245" x2="84" y2="334" fill="none" stroke="#fff" stroke-miterlimit="10" stroke-width="2"/>
  <line x1="153" y1="245" x2="153" y2="334" fill="none" stroke="#fff" stroke-miterlimit="10" stroke-width="2"/>
  <g>
    <path d="M221.09,179.69v-1.9l2.43-2.36c5.85-5.57,8.49-8.53,8.52-12,0-2.32-1.12-4.47-4.54-4.47a7.77,7.77,0,0,0-4.86,1.93l-1-2.18a10,10,0,0,1,6.48-2.33c4.93,0,7,3.39,7,6.66,0,4.23-3.06,7.65-7.89,12.3l-1.83,1.69v.07h10.29v2.57Z" fill="#fff"/>
    <path d="M241.59,162.64,244,166.3c.64,1,1.16,1.84,1.73,2.79h.1c.57-1,1.13-1.9,1.69-2.82l2.4-3.63h3.35l-5.82,8.24,6,8.81h-3.52l-2.5-3.84c-.67-1-1.23-1.94-1.83-3h-.07c-.57,1-1.17,1.94-1.8,3l-2.47,3.84h-3.41l6.06-8.7-5.78-8.35Z" fill="#fff"/>
    <path d="M256.21,176.13a10.3,10.3,0,0,0,5.07,1.45c4,0,5.22-2.54,5.18-4.44,0-3.21-2.92-4.58-5.92-4.58h-1.72v-2.33h1.72c2.26,0,5.11-1.16,5.11-3.87,0-1.83-1.16-3.45-4-3.45a8.41,8.41,0,0,0-4.58,1.51l-.81-2.25a10.78,10.78,0,0,1,6-1.77c4.51,0,6.55,2.68,6.55,5.46,0,2.37-1.41,4.37-4.23,5.4v.07a6,6,0,0,1,5.11,5.88c0,3.66-2.85,6.87-8.35,6.87a11.61,11.61,0,0,1-5.95-1.55Z" fill="#fff"/>
    <path d="M280.84,167.82v-2.11H299v2.11Zm0,6.9v-2.11H299v2.11Z" fill="#fff"/>
    <path d="M322.55,159a10.89,10.89,0,0,0-2.32.14,9.32,9.32,0,0,0-8,8.14h.11a6.82,6.82,0,0,1,5.53-2.65c4.05,0,6.91,2.93,6.91,7.4,0,4.2-2.86,8.07-7.61,8.07s-8.11-3.8-8.11-9.76A14.36,14.36,0,0,1,313,160a12.43,12.43,0,0,1,7.33-3.38,13.79,13.79,0,0,1,2.25-.18Zm-.88,13.21c0-3.28-1.87-5.25-4.72-5.25a5.1,5.1,0,0,0-4.44,2.82,2.64,2.64,0,0,0-.35,1.37c.07,3.77,1.8,6.55,5,6.55C319.88,177.68,321.67,175.46,321.67,172.19Z" fill="#fff"/>
  </g>
</svg>
