<svg id="b178ce20-0292-4430-9f7f-b8eafe1bdd64" data-name="498d7f96-51f1-4029-b82f-c79215199a10" xmlns="http://www.w3.org/2000/svg" xmlns:xlink="http://www.w3.org/1999/xlink" viewBox="0 0 350 350">
  <defs>
    <linearGradient id="58e2a2b9-eda8-432e-9556-8d4fe67122d4" data-name="Безымянный градиент" x1="294.53" y1="382.03" x2="55.47" y2="-32.03" gradientTransform="matrix(1, 0, 0, -1, 0, 350)" gradientUnits="userSpaceOnUse">
      <stop offset="0" stop-color="#ffe324"/>
      <stop offset="0.3" stop-color="#ffda27"/>
      <stop offset="0.81" stop-color="#ffc02f"/>
      <stop offset="0.99" stop-color="#ffb533"/>
    </linearGradient>
  </defs>
  <title>Mul_2_ex_3</title>
  <rect width="350" height="350" fill="url(#58e2a2b9-eda8-432e-9556-8d4fe67122d4)"/>
  <path d="M19.8,224H218.11c3.21,0,5.8,2,5.8,4.5h0c0,2.49-2.59,4.5-5.8,4.5H19.8c-3.21,0-5.8-2-5.8-4.5h0C14,226,16.59,224,19.8,224Z" fill="#fff"/>
  <g>
    <path d="M72.2,133.74v-5.65l7.22-7c17.35-16.52,25.19-25.3,25.29-35.54,0-6.9-3.34-13.28-13.48-13.28-6.17,0-11.29,3.14-14.43,5.75l-2.92-6.48a29.81,29.81,0,0,1,19.23-6.9c14.64,0,20.8,10,20.8,19.76,0,12.54-9.09,22.68-23.41,36.48l-5.44,5v.21h30.53v7.63Z" fill="#fff"/>
    <path d="M145.8,74.36h-.21l-11.82,6.38-1.77-7,14.84-7.95h7.84v68H145.8Z" fill="#fff"/>
  </g>
  <g>
    <path d="M74.4,208.18a30.77,30.77,0,0,0,15,4.29c11.81,0,15.47-7.53,15.37-13.17-.11-9.52-8.68-13.59-17.56-13.59H82.13v-6.9h5.13c6.69,0,15.15-3.45,15.15-11.5,0-5.44-3.45-10.25-11.91-10.25a24.93,24.93,0,0,0-13.59,4.5l-2.41-6.69c3.56-2.62,10.46-5.23,17.77-5.23,13.39,0,19.45,8,19.45,16.2,0,7-4.18,13-12.55,16v.21c8.37,1.67,15.16,7.94,15.16,17.45,0,10.88-8.47,20.39-24.77,20.39-7.63,0-14.33-2.4-17.67-4.6Z" fill="#fff"/>
    <path d="M125.83,218.74v-5.65l7.21-7c17.36-16.52,25.2-25.3,25.3-35.54,0-6.9-3.34-13.28-13.48-13.28-6.17,0-11.29,3.14-14.43,5.75l-2.93-6.48a29.86,29.86,0,0,1,19.24-6.9c14.63,0,20.8,10,20.8,19.76,0,12.54-9.09,22.68-23.42,36.48l-5.43,5v.21h30.52v7.63Z" fill="#fff"/>
  </g>
  <path d="M38.86,127.45l5.37,8.08c1.4,2.1,2.57,4.05,3.81,6.15h.23c1.25-2.26,2.49-4.2,3.74-6.22l5.28-8h7.39L51.85,145.64l13.22,19.44H57.29l-5.52-8.47c-1.48-2.18-2.72-4.28-4-6.54h-.16c-1.24,2.26-2.56,4.28-4,6.54l-5.45,8.47H30.62L44,145.87,31.24,127.45Z" fill="#fff"/>
  <path d="M66.44,264.27a33.45,33.45,0,0,0-6.9.42c-14.42,2.4-22,13-23.62,24.15h.31A20.24,20.24,0,0,1,52.64,281c12,0,20.49,8.67,20.49,21.95,0,12.44-8.46,23.94-22.58,23.94-14.53,0-24-11.29-24-29,0-13.38,4.81-23.94,11.5-30.63a36.94,36.94,0,0,1,21.74-10,44.12,44.12,0,0,1,6.69-.53Zm-2.61,39.2c0-9.72-5.54-15.57-14-15.57a15.14,15.14,0,0,0-13.17,8.36,7.78,7.78,0,0,0-1,4.08c.21,11.18,5.34,19.44,14.95,19.44C58.5,319.78,63.83,313.19,63.83,303.47Z" fill="#fff"/>
  <path d="M178.69,305.77l-.2-2.71c-.63-5.65,1.25-11.82,6.48-18.09,4.7-5.54,7.31-9.62,7.31-14.32,0-5.33-3.34-8.89-9.93-9a18.52,18.52,0,0,0-10.55,3.24l-2.51-6.59c3.45-2.51,9.4-4.18,15-4.18,12,0,17.45,7.42,17.45,15.37,0,7.11-4,12.23-9,18.19-4.6,5.43-6.27,10-6,15.37l.11,2.71Zm-2.3,14.64c0-3.87,2.62-6.59,6.28-6.59s6.16,2.72,6.16,6.59c0,3.66-2.4,6.48-6.27,6.48C178.9,326.89,176.39,324.07,176.39,320.41Z" fill="#fff" stroke="#fff" stroke-miterlimit="10"/>
  <line x1="84" y1="245" x2="84" y2="334" fill="none" stroke="#fff" stroke-miterlimit="10" stroke-width="2"/>
  <line x1="153" y1="245" x2="153" y2="334" fill="none" stroke="#fff" stroke-miterlimit="10" stroke-width="2"/>
  <g>
    <path d="M188.49,186.91v-1.46l1.87-1.82c4.51-4.29,6.54-6.57,6.57-9.23a3.14,3.14,0,0,0-3.5-3.44,6,6,0,0,0-3.75,1.49l-.76-1.68a7.77,7.77,0,0,1,5-1.79c3.79,0,5.4,2.6,5.4,5.12,0,3.26-2.36,5.89-6.08,9.47l-1.41,1.31v.05h7.92v2Z" fill="#fff"/>
    <path d="M204.28,173.78l1.87,2.82c.49.73.9,1.41,1.33,2.14h.08c.44-.78.87-1.46,1.3-2.17l1.85-2.79h2.58l-4.48,6.35,4.61,6.78h-2.71l-1.93-3c-.51-.76-.95-1.49-1.41-2.28h-.05c-.44.79-.9,1.5-1.39,2.28l-1.89,3H201.4l4.67-6.7-4.45-6.43Z" fill="#fff"/>
    <path d="M215,186.91v-1.46l1.87-1.82c4.5-4.29,6.54-6.57,6.57-9.23a3.14,3.14,0,0,0-3.5-3.44,6,6,0,0,0-3.75,1.49l-.76-1.68a7.75,7.75,0,0,1,5-1.79c3.8,0,5.4,2.6,5.4,5.12,0,3.26-2.36,5.89-6.07,9.47l-1.42,1.31v.05h7.93v2Z" fill="#fff"/>
    <path d="M242.37,172.48v6.37h6.13v1.63h-6.13v6.43h-1.74v-6.43H234.5v-1.63h6.13v-6.37Z" fill="#fff"/>
    <path d="M257.13,184.17a8,8,0,0,0,3.9,1.11c3.07,0,4-1.95,4-3.42,0-2.47-2.25-3.52-4.56-3.52h-1.33v-1.79h1.33c1.74,0,3.94-.9,3.94-3,0-1.41-.9-2.66-3.1-2.66a6.48,6.48,0,0,0-3.52,1.17l-.63-1.74a8.49,8.49,0,0,1,4.61-1.35c3.48,0,5.05,2.06,5.05,4.2a4.37,4.37,0,0,1-3.25,4.15v.06a4.59,4.59,0,0,1,3.93,4.53c0,2.82-2.2,5.29-6.43,5.29a9,9,0,0,1-4.59-1.2Z" fill="#fff"/>
    <path d="M272.34,173.78l1.88,2.82c.49.73.89,1.41,1.33,2.14h.08c.43-.78.87-1.46,1.3-2.17l1.84-2.79h2.58l-4.47,6.35,4.61,6.78h-2.72l-1.92-3c-.52-.76-1-1.49-1.41-2.28h-.06c-.43.79-.89,1.5-1.38,2.28l-1.9,3h-2.63l4.67-6.7-4.45-6.43Z" fill="#fff"/>
    <path d="M288.22,171.5h-.06l-3.06,1.66-.47-1.82,3.86-2.06h2v17.63h-2.3Z" fill="#fff"/>
    <path d="M302.57,177.77v-1.63h14v1.63Zm0,5.31v-1.62h14v1.62Z" fill="#fff"/>
    <path d="M336.07,169.28v1.57l-7.68,16.06h-2.47l7.66-15.6v-.05H325v-2Z" fill="#fff"/>
  </g>
  <path d="M141.27,257.79v6.06l-29.58,61.89h-9.51l29.48-60.11v-.21H98.41v-7.63Z" fill="#55b4ff"/>
</svg>
