<svg id="2863989e-2dfa-4199-8ebe-40bf04fde5ef" data-name="Слой 1" xmlns="http://www.w3.org/2000/svg" xmlns:xlink="http://www.w3.org/1999/xlink" viewBox="0 0 350 350">
  <defs>
    <linearGradient id="d2f3b586-6a5f-42e2-9e98-e27031cff39e" data-name="Безымянный градиент 8" x1="55.47" y1="-32.03" x2="294.53" y2="382.03" gradientUnits="userSpaceOnUse">
      <stop offset="0" stop-color="#55a4f1"/>
      <stop offset="0" stop-color="#5ea0e8"/>
      <stop offset="0" stop-color="#7894ce"/>
      <stop offset="0" stop-color="#a182a5"/>
      <stop offset="0" stop-color="#da696d"/>
      <stop offset="0" stop-color="#f05f57"/>
      <stop offset="0.11" stop-color="#e65a56"/>
      <stop offset="0.29" stop-color="#ca4d52"/>
      <stop offset="0.54" stop-color="#9d384d"/>
      <stop offset="0.82" stop-color="#5f1c45"/>
      <stop offset="0.99" stop-color="#360940"/>
    </linearGradient>
  </defs>
  <title>Mul_2</title>
  <rect width="350" height="350" fill="url(#d2f3b586-6a5f-42e2-9e98-e27031cff39e)"/>
  <text></text>
  <path d="M43.17,110.87a18.11,18.11,0,0,1,0,25.8,17.86,17.86,0,0,1-13,5.34,17.91,17.91,0,0,1-13-5.34,18.08,18.08,0,0,1,0-25.8,17.94,17.94,0,0,1,13.05-5.33A17.89,17.89,0,0,1,43.17,110.87Zm-13.06,2.56a10.19,10.19,0,0,0-7.44,3,10.3,10.3,0,0,0,0,14.69,10.19,10.19,0,0,0,7.44,3.05,10.18,10.18,0,0,0,7.43-3.05,10.27,10.27,0,0,0,0-14.69A10.18,10.18,0,0,0,30.11,113.43Z" fill="#fff"/>
  <path d="M43.17,174.87a18.11,18.11,0,0,1,0,25.8,17.86,17.86,0,0,1-13,5.34,17.91,17.91,0,0,1-13-5.34,18.08,18.08,0,0,1,0-25.8,17.94,17.94,0,0,1,13.05-5.33A17.89,17.89,0,0,1,43.17,174.87Zm-13.06,2.56a10.19,10.19,0,0,0-7.44,3,10.3,10.3,0,0,0,0,14.69,10.19,10.19,0,0,0,7.44,3.05,10.18,10.18,0,0,0,7.43-3.05,10.27,10.27,0,0,0,0-14.69A10.18,10.18,0,0,0,30.11,177.43Z" fill="#fff"/>
  <path d="M99.17,110.87a18.11,18.11,0,0,1,0,25.8,18.6,18.6,0,0,1-26.09,0,18.08,18.08,0,0,1,0-25.8,18.63,18.63,0,0,1,26.09,0Zm-13.06,2.56a10.19,10.19,0,0,0-7.44,3,10.3,10.3,0,0,0,0,14.69,10.59,10.59,0,0,0,14.87,0,10.27,10.27,0,0,0,0-14.69A10.18,10.18,0,0,0,86.11,113.43Z" fill="#fff"/>
  <path d="M99.17,174.87a18.11,18.11,0,0,1,0,25.8,18.6,18.6,0,0,1-26.09,0,18.08,18.08,0,0,1,0-25.8,18.63,18.63,0,0,1,26.09,0Zm-13.06,2.56a10.19,10.19,0,0,0-7.44,3,10.3,10.3,0,0,0,0,14.69,10.59,10.59,0,0,0,14.87,0,10.27,10.27,0,0,0,0-14.69A10.18,10.18,0,0,0,86.11,177.43Z" fill="#fff"/>
  <path d="M159.17,110.87a18.11,18.11,0,0,1,0,25.8,18.6,18.6,0,0,1-26.09,0,18.08,18.08,0,0,1,0-25.8,18.63,18.63,0,0,1,26.09,0Zm-13.06,2.56a10.19,10.19,0,0,0-7.44,3,10.3,10.3,0,0,0,0,14.69,10.59,10.59,0,0,0,14.87,0,10.27,10.27,0,0,0,0-14.69A10.18,10.18,0,0,0,146.11,113.43Z" fill="#fff"/>
  <path d="M159.17,174.87a18.11,18.11,0,0,1,0,25.8,18.6,18.6,0,0,1-26.09,0,18.08,18.08,0,0,1,0-25.8,18.63,18.63,0,0,1,26.09,0Zm-13.06,2.56a10.19,10.19,0,0,0-7.44,3,10.3,10.3,0,0,0,0,14.69,10.59,10.59,0,0,0,14.87,0,10.27,10.27,0,0,0,0-14.69A10.18,10.18,0,0,0,146.11,177.43Z" fill="#fff"/>
  <path d="M215.17,110.87a18.11,18.11,0,0,1,0,25.8,18.6,18.6,0,0,1-26.09,0,18.08,18.08,0,0,1,0-25.8,18.63,18.63,0,0,1,26.09,0Zm-13.06,2.56a10.19,10.19,0,0,0-7.44,3,10.3,10.3,0,0,0,0,14.69,10.59,10.59,0,0,0,14.87,0,10.27,10.27,0,0,0,0-14.69A10.18,10.18,0,0,0,202.11,113.43Z" fill="#fff"/>
  <path d="M215.17,174.87a18.11,18.11,0,0,1,0,25.8,18.6,18.6,0,0,1-26.09,0,18.08,18.08,0,0,1,0-25.8,18.63,18.63,0,0,1,26.09,0Zm-13.06,2.56a10.19,10.19,0,0,0-7.44,3,10.3,10.3,0,0,0,0,14.69,10.59,10.59,0,0,0,14.87,0,10.27,10.27,0,0,0,0-14.69A10.18,10.18,0,0,0,202.11,177.43Z" fill="#fff"/>
  <path d="M277.17,110.87a18.11,18.11,0,0,1,0,25.8,18.6,18.6,0,0,1-26.09,0,18.08,18.08,0,0,1,0-25.8,18.63,18.63,0,0,1,26.09,0Zm-13.06,2.56a10.19,10.19,0,0,0-7.44,3,10.3,10.3,0,0,0,0,14.69,10.59,10.59,0,0,0,14.87,0,10.27,10.27,0,0,0,0-14.69A10.18,10.18,0,0,0,264.11,113.43Z" fill="#fff"/>
  <path d="M277.17,174.87a18.11,18.11,0,0,1,0,25.8,18.6,18.6,0,0,1-26.09,0,18.08,18.08,0,0,1,0-25.8,18.63,18.63,0,0,1,26.09,0Zm-13.06,2.56a10.19,10.19,0,0,0-7.44,3,10.3,10.3,0,0,0,0,14.69,10.59,10.59,0,0,0,14.87,0,10.27,10.27,0,0,0,0-14.69A10.18,10.18,0,0,0,264.11,177.43Z" fill="#fff"/>
  <path d="M333.17,110.87a18.11,18.11,0,0,1,0,25.8,18.6,18.6,0,0,1-26.09,0,18.08,18.08,0,0,1,0-25.8,18.63,18.63,0,0,1,26.09,0Zm-13.06,2.56a10.19,10.19,0,0,0-7.44,3,10.3,10.3,0,0,0,0,14.69,10.59,10.59,0,0,0,14.87,0,10.27,10.27,0,0,0,0-14.69A10.18,10.18,0,0,0,320.11,113.43Z" fill="#fff"/>
  <path d="M333.17,174.87a18.11,18.11,0,0,1,0,25.8,18.6,18.6,0,0,1-26.09,0,18.08,18.08,0,0,1,0-25.8,18.63,18.63,0,0,1,26.09,0Zm-13.06,2.56a10.19,10.19,0,0,0-7.44,3,10.3,10.3,0,0,0,0,14.69,10.59,10.59,0,0,0,14.87,0,10.27,10.27,0,0,0,0-14.69A10.18,10.18,0,0,0,320.11,177.43Z" fill="#fff"/>
  <line x1="30.5" y1="146.5" x2="30.5" y2="166.5" fill="none" stroke="#ff0" stroke-linejoin="round" stroke-width="5"/>
  <line x1="320.5" y1="147" x2="320.5" y2="167" fill="none" stroke="#ff0" stroke-linejoin="round" stroke-width="5"/>
  <line x1="186.5" y1="144.5" x2="162.5" y2="169.5" fill="none" stroke="#ff0" stroke-linejoin="round" stroke-width="5"/>
  <line x1="187" y1="169" x2="162" y2="145" fill="none" stroke="#ff0" stroke-linejoin="round" stroke-width="5"/>
  <rect x="298" y="100" width="44" height="109" rx="12" ry="12" fill="none" stroke="#ff0" stroke-linejoin="round" stroke-width="2"/>
  <rect x="8" y="102" width="44" height="109" rx="12" ry="12" fill="none" stroke="#ff0" stroke-linejoin="round" stroke-width="2"/>
  <rect x="125" y="102" width="98" height="109" rx="12" ry="12" fill="none" stroke="#ff0" stroke-linejoin="round" stroke-width="2"/>
</svg>
