<svg id="35f98833-67c2-4aa2-ae5e-a6e9ca43f404" data-name="498d7f96-51f1-4029-b82f-c79215199a10" xmlns="http://www.w3.org/2000/svg" xmlns:xlink="http://www.w3.org/1999/xlink" viewBox="0 0 350 350">
  <defs>
    <linearGradient id="5af9aece-451d-49ea-b894-8b55a29ee87c" data-name="Безымянный градиент" x1="294.53" y1="382.03" x2="55.47" y2="-32.03" gradientTransform="matrix(1, 0, 0, -1, 0, 350)" gradientUnits="userSpaceOnUse">
      <stop offset="0" stop-color="#ffe324"/>
      <stop offset="0.3" stop-color="#ffda27"/>
      <stop offset="0.81" stop-color="#ffc02f"/>
      <stop offset="0.99" stop-color="#ffb533"/>
    </linearGradient>
  </defs>
  <title>Mul_2_ex</title>
  <rect width="350" height="350" fill="url(#5af9aece-451d-49ea-b894-8b55a29ee87c)"/>
  <path d="M19.8,224H218.11c3.21,0,5.8,2,5.8,4.5h0c0,2.49-2.59,4.5-5.8,4.5H19.8c-3.21,0-5.8-2-5.8-4.5h0C14,226,16.59,224,19.8,224Z" fill="#fff"/>
  <g>
    <path d="M72.2,133.74v-5.65l7.22-7c17.35-16.52,25.19-25.3,25.29-35.54,0-6.9-3.34-13.28-13.48-13.28-6.17,0-11.29,3.14-14.43,5.75l-2.92-6.48a29.81,29.81,0,0,1,19.23-6.9c14.64,0,20.8,10,20.8,19.76,0,12.54-9.09,22.68-23.41,36.48l-5.44,5v.21h30.53v7.63Z" fill="#fff"/>
    <path d="M145.8,74.36h-.21l-11.82,6.38-1.77-7,14.84-7.95h7.84v68H145.8Z" fill="#fff"/>
  </g>
  <g>
    <path d="M74.4,208.18a30.77,30.77,0,0,0,15,4.29c11.81,0,15.47-7.53,15.37-13.17-.11-9.52-8.68-13.59-17.56-13.59H82.13v-6.9h5.13c6.69,0,15.15-3.45,15.15-11.5,0-5.44-3.45-10.25-11.91-10.25a24.93,24.93,0,0,0-13.59,4.5l-2.41-6.69c3.56-2.62,10.46-5.23,17.77-5.23,13.39,0,19.45,8,19.45,16.2,0,7-4.18,13-12.55,16v.21c8.37,1.67,15.16,7.94,15.16,17.45,0,10.88-8.47,20.39-24.77,20.39-7.63,0-14.33-2.4-17.67-4.6Z" fill="#fff"/>
    <path d="M125.83,218.74v-5.65l7.21-7c17.36-16.52,25.2-25.3,25.3-35.54,0-6.9-3.34-13.28-13.48-13.28-6.17,0-11.29,3.14-14.43,5.75l-2.93-6.48a29.86,29.86,0,0,1,19.24-6.9c14.63,0,20.8,10,20.8,19.76,0,12.54-9.09,22.68-23.42,36.48l-5.43,5v.21h30.52v7.63Z" fill="#fff"/>
  </g>
  <path d="M38.86,127.45l5.37,8.08c1.4,2.1,2.57,4.05,3.81,6.15h.23c1.25-2.26,2.49-4.2,3.74-6.22l5.28-8h7.39L51.85,145.64l13.22,19.44H57.29l-5.52-8.47c-1.48-2.18-2.72-4.28-4-6.54h-.16c-1.24,2.26-2.56,4.28-4,6.54l-5.45,8.47H30.62L44,145.87,31.24,127.45Z" fill="#fff"/>
  <path d="M47.19,305.77l-.2-2.71c-.63-5.65,1.25-11.82,6.48-18.09,4.7-5.54,7.31-9.62,7.31-14.32,0-5.33-3.34-8.89-9.93-9A18.52,18.52,0,0,0,40.3,264.9l-2.51-6.59c3.45-2.51,9.4-4.18,15-4.18,12,0,17.45,7.42,17.45,15.37,0,7.11-4,12.23-9,18.19-4.6,5.43-6.27,10-6,15.37l.11,2.71ZM44.9,320.41c0-3.87,2.61-6.59,6.27-6.59s6.16,2.72,6.16,6.59c0,3.66-2.4,6.48-6.27,6.48C47.4,326.89,44.9,324.07,44.9,320.41Z" fill="#fff"/>
  <path d="M112.69,305.77l-.2-2.71c-.63-5.65,1.25-11.82,6.48-18.09,4.7-5.54,7.31-9.62,7.31-14.32,0-5.33-3.34-8.89-9.93-9a18.52,18.52,0,0,0-10.55,3.24l-2.51-6.59c3.45-2.51,9.4-4.18,14.95-4.18,12,0,17.45,7.42,17.45,15.37,0,7.11-4,12.23-9,18.19-4.6,5.43-6.27,10-6,15.37l.11,2.71Zm-2.29,14.64c0-3.87,2.61-6.59,6.27-6.59s6.16,2.72,6.16,6.59c0,3.66-2.4,6.48-6.27,6.48C112.9,326.89,110.4,324.07,110.4,320.41Z" fill="#fff"/>
  <path d="M178.69,305.77l-.2-2.71c-.63-5.65,1.25-11.82,6.48-18.09,4.7-5.54,7.31-9.62,7.31-14.32,0-5.33-3.34-8.89-9.93-9a18.52,18.52,0,0,0-10.55,3.24l-2.51-6.59c3.45-2.51,9.4-4.18,15-4.18,12,0,17.45,7.42,17.45,15.37,0,7.11-4,12.23-9,18.19-4.6,5.43-6.27,10-6,15.37l.11,2.71Zm-2.3,14.64c0-3.87,2.62-6.59,6.28-6.59s6.16,2.72,6.16,6.59c0,3.66-2.4,6.48-6.27,6.48C178.9,326.89,176.39,324.07,176.39,320.41Z" fill="#fff" stroke="#fff" stroke-miterlimit="10"/>
  <line x1="84" y1="245" x2="84" y2="334" fill="none" stroke="#fff" stroke-miterlimit="10" stroke-width="2"/>
  <line x1="153" y1="245" x2="153" y2="334" fill="none" stroke="#fff" stroke-miterlimit="10" stroke-width="2"/>
</svg>
