<svg id="89143239-1d93-4df5-966b-e6fee0ab7575" data-name="Слой 1" xmlns="http://www.w3.org/2000/svg" xmlns:xlink="http://www.w3.org/1999/xlink" viewBox="0 0 350 350">
  <defs>
    <linearGradient id="426d6d46-6c88-4f95-b7fd-342602b2c6d9" data-name="Безымянный градиент 28" x1="-32.03" y1="55.47" x2="382.03" y2="294.53" gradientUnits="userSpaceOnUse">
      <stop offset="0" stop-color="#facd7c"/>
      <stop offset="0.19" stop-color="#fac482"/>
      <stop offset="0.5" stop-color="#fbaa92"/>
      <stop offset="0.9" stop-color="#fc81ac"/>
      <stop offset="1" stop-color="#fc76b3"/>
    </linearGradient>
  </defs>
  <title>Sub_2</title>
  <rect width="350" height="350" fill="url(#426d6d46-6c88-4f95-b7fd-342602b2c6d9)"/>
  <path d="M85.5,117.56v6.5H60.8v-6.5Z" fill="#fff"/>
  <rect x="14" y="224" width="327" height="9" rx="4.5" ry="4.5" fill="#fff"/>
  <g>
    <path d="M41.22,293.27l-5.83,17.67H27.88L47,254.75h8.76L74.9,310.94H67.15l-6-17.67Zm18.42-5.67-5.5-16.17c-1.25-3.67-2.08-7-2.91-10.26h-.17c-.83,3.34-1.75,6.75-2.84,10.17l-5.5,16.26Z" fill="#fff"/>
    <path d="M83.15,255.5a71,71,0,0,1,13.26-1.16c7.25,0,11.92,1.25,15.42,4.08a11.78,11.78,0,0,1,4.67,9.92c0,5.42-3.59,10.17-9.51,12.34v.16c5.34,1.34,11.59,5.76,11.59,14.09a15.16,15.16,0,0,1-4.75,11.26c-3.92,3.58-10.25,5.25-19.42,5.25a85.43,85.43,0,0,1-11.26-.67Zm7.26,23H97c7.67,0,12.17-4,12.17-9.42,0-6.58-5-9.17-12.33-9.17a31,31,0,0,0-6.42.5Zm0,26.93a38.74,38.74,0,0,0,6.08.33c7.5,0,14.42-2.75,14.42-10.92,0-7.67-6.58-10.84-14.5-10.84h-6Z" fill="#fff"/>
    <path d="M145.51,285.68v5.42H124.92v-5.42Z" fill="#fff"/>
    <path d="M194.77,309.1c-2.67,1.34-8,2.67-14.84,2.67-15.83,0-27.75-10-27.75-28.42,0-17.59,11.92-29.51,29.34-29.51,7,0,11.42,1.5,13.34,2.5l-1.75,5.92a26.36,26.36,0,0,0-11.34-2.34c-13.17,0-21.93,8.42-21.93,23.18,0,13.75,7.92,22.59,21.59,22.59a29,29,0,0,0,11.84-2.34Z" fill="#fff"/>
    <path d="M237.29,283.26c0,18.42-6.84,28.59-18.84,28.59-10.59,0-17.76-9.92-17.92-27.84,0-18.17,7.83-28.17,18.83-28.17C230.78,255.84,237.29,266,237.29,283.26Zm-29.43.84c0,14.08,4.34,22.09,11,22.09,7.51,0,11.09-8.76,11.09-22.59,0-13.34-3.42-22.09-11-22.09C212.53,261.51,207.86,269.34,207.86,284.1Z" fill="#fff"/>
    <path d="M263.38,285.68v5.42H242.79v-5.42Z" fill="#fff"/>
    <path d="M272.21,255.5a104.94,104.94,0,0,1,15.43-1.16c10.42,0,17.84,2.41,22.75,7s7.92,11.09,7.92,20.17-2.83,16.67-8.08,21.84-13.92,8.09-24.84,8.09a116.4,116.4,0,0,1-13.18-.67Zm7.26,49.69a46.23,46.23,0,0,0,7.33.41c15.51,0,23.93-8.67,23.93-23.84.08-13.25-7.42-21.67-22.76-21.67a40.91,40.91,0,0,0-8.5.75Z" fill="#fff"/>
  </g>
  <g>
    <path d="M135.22,77.27l-5.83,17.67h-7.51L141,38.75h8.76L168.9,94.94h-7.75l-6-17.67Zm18.42-5.67-5.5-16.17c-1.25-3.67-2.08-7-2.91-10.26h-.17c-.83,3.34-1.75,6.75-2.84,10.17l-5.5,16.26Z" fill="#fff"/>
    <path d="M194.83,39.5a70.86,70.86,0,0,1,13.25-1.16c7.25,0,11.92,1.25,15.42,4.08a11.78,11.78,0,0,1,4.67,9.92c0,5.42-3.58,10.17-9.5,12.34v.16c5.33,1.34,11.58,5.76,11.58,14.09a15.13,15.13,0,0,1-4.75,11.26c-3.92,3.58-10.25,5.25-19.42,5.25a85.13,85.13,0,0,1-11.25-.67Zm7.25,23h6.58c7.67,0,12.17-4,12.17-9.42,0-6.58-5-9.17-12.33-9.17a31.11,31.11,0,0,0-6.42.5Zm0,26.93a38.82,38.82,0,0,0,6.08.33c7.51,0,14.42-2.75,14.42-10.92,0-7.67-6.58-10.84-14.5-10.84h-6Z" fill="#fff"/>
  </g>
  <g>
    <path d="M165.4,192.1c-2.67,1.34-8,2.67-14.84,2.67-15.84,0-27.76-10-27.76-28.42,0-17.59,11.92-29.51,29.34-29.51,7,0,11.42,1.5,13.34,2.5l-1.75,5.92a26.32,26.32,0,0,0-11.34-2.34c-13.17,0-21.92,8.42-21.92,23.18,0,13.75,7.92,22.59,21.59,22.59a29,29,0,0,0,11.84-2.34Z" fill="#fff"/>
    <path d="M192.16,138.5a104.91,104.91,0,0,1,15.42-1.16c10.42,0,17.84,2.41,22.76,7s7.92,11.09,7.92,20.17-2.84,16.67-8.09,21.84-13.92,8.09-24.84,8.09a116.21,116.21,0,0,1-13.17-.67Zm7.25,49.69a46.29,46.29,0,0,0,7.34.41c15.5,0,23.92-8.67,23.92-23.84.08-13.25-7.42-21.67-22.76-21.67a41,41,0,0,0-8.5.75Z" fill="#fff"/>
  </g>
</svg>
