<svg id="498d7f96-51f1-4029-b82f-c79215199a10" data-name="Слой 1" xmlns="http://www.w3.org/2000/svg" xmlns:xlink="http://www.w3.org/1999/xlink" viewBox="0 0 350 350">
  <defs>
    <linearGradient id="b20eb7f8-0e11-44ec-a291-c469688813e4" data-name="Безымянный градиент 33" x1="294.53" y1="-32.03" x2="55.47" y2="382.03" gradientUnits="userSpaceOnUse">
      <stop offset="0" stop-color="#ffe324"/>
      <stop offset="0.3" stop-color="#ffda27"/>
      <stop offset="0.81" stop-color="#ffc02f"/>
      <stop offset="0.99" stop-color="#ffb533"/>
    </linearGradient>
  </defs>
  <title>Sub_2_ex_2</title>
  <rect width="350" height="350" fill="url(#b20eb7f8-0e11-44ec-a291-c469688813e4)"/>
  <rect x="14" y="224" width="163" height="9" rx="4.5" ry="4.5" fill="#fff"/>
  <g>
    <path d="M114.37,55.66v5.8l-28.3,59.21H77l28.2-57.51V63H73.37v-7.3Z" fill="#fff"/>
    <path d="M128.57,114.47a36.72,36.72,0,0,0,7.1-.3,24.52,24.52,0,0,0,13.6-6.3c4.3-3.9,7.4-9.6,8.6-17.31h-.3a19.08,19.08,0,0,1-15.3,7c-11.7,0-19.21-8.8-19.21-19.9,0-12.3,8.91-23.1,22.21-23.1s21.5,10.8,21.5,27.4c0,14.31-4.8,24.31-11.2,30.51a32.49,32.49,0,0,1-18.9,8.7,41,41,0,0,1-8.1.5Zm3.2-37.41c0,8.1,4.9,13.8,12.5,13.8a14.55,14.55,0,0,0,12.8-6.8,5.81,5.81,0,0,0,.8-3.2c0-11.1-4.1-19.6-13.3-19.6C137.07,61.26,131.77,67.86,131.77,77.06Z" fill="#fff"/>
  </g>
  <g>
    <path d="M99.37,207.67V190H69.17v-5.79l29-41.51h9.5v40.4h9.1V190h-9.1v17.71Zm0-24.61v-21.7q0-5.1.3-10.2h-.3c-2,3.8-3.6,6.6-5.4,9.6l-15.9,22.11v.19Z" fill="#fff"/>
    <path d="M125.57,197.57a29.41,29.41,0,0,0,14.4,4.1c11.3,0,14.8-7.2,14.7-12.6-.1-9.11-8.3-13-16.8-13H133v-6.6h4.9c6.4,0,14.5-3.3,14.5-11,0-5.2-3.3-9.8-11.4-9.8a23.87,23.87,0,0,0-13,4.3l-2.3-6.4c3.4-2.5,10-5,17-5,12.8,0,18.6,7.6,18.6,15.5,0,6.7-4,12.4-12,15.3v.2c8,1.6,14.5,7.61,14.5,16.71,0,10.4-8.1,19.5-23.7,19.5-7.3,0-13.7-2.3-16.9-4.4Z" fill="#fff"/>
  </g>
  <path d="M47.34,101.13v23.5h22.6v6H47.34v23.7h-6.4v-23.7H18.33v-6H40.94v-23.5Z" fill="#fff"/>
  <g>
    <path d="M183.93,132.23a10.09,10.09,0,0,0,4.94,1.41c3.88,0,5.08-2.47,5-4.32,0-3.13-2.85-4.46-5.77-4.46h-1.68v-2.27h1.68c2.2,0,5-1.13,5-3.77,0-1.79-1.13-3.37-3.91-3.37a8.21,8.21,0,0,0-4.47,1.48l-.79-2.2A10.71,10.71,0,0,1,189.8,113c4.39,0,6.38,2.61,6.38,5.32,0,2.3-1.37,4.25-4.12,5.25v.07a5.8,5.8,0,0,1,5,5.73c0,3.57-2.78,6.69-8.13,6.69a11.34,11.34,0,0,1-5.8-1.51Z" fill="#fff"/>
    <path d="M202.56,133.57a12.71,12.71,0,0,0,2.44-.1,8.43,8.43,0,0,0,4.67-2.16,9.83,9.83,0,0,0,3-5.94h-.1a6.55,6.55,0,0,1-5.25,2.4c-4,0-6.59-3-6.59-6.83a7.64,7.64,0,0,1,7.61-7.92c4.57,0,7.38,3.7,7.38,9.4,0,4.91-1.64,8.34-3.84,10.47a11.13,11.13,0,0,1-6.49,3,13.72,13.72,0,0,1-2.78.17Zm1.1-12.83c0,2.78,1.68,4.73,4.29,4.73a5,5,0,0,0,4.39-2.33,1.92,1.92,0,0,0,.28-1.1c0-3.81-1.41-6.72-4.57-6.72C205.48,115.32,203.66,117.58,203.66,120.74Z" fill="#fff"/>
  </g>
  <path d="M232.39,124.58v2.23h-8.48v-2.23Z" fill="#fff"/>
  <path d="M241.42,132.23a10.1,10.1,0,0,0,5,1.41c3.87,0,5.07-2.47,5-4.32,0-3.13-2.85-4.46-5.76-4.46H244v-2.27h1.69c2.19,0,5-1.13,5-3.77,0-1.79-1.13-3.37-3.91-3.37a8.14,8.14,0,0,0-4.46,1.48l-.79-2.2a10.67,10.67,0,0,1,5.83-1.71c4.39,0,6.38,2.61,6.38,5.32,0,2.3-1.37,4.25-4.11,5.25v.07a5.8,5.8,0,0,1,5,5.73c0,3.57-2.78,6.69-8.13,6.69a11.34,11.34,0,0,1-5.8-1.51Z" fill="#fff"/>
  <g>
    <path d="M294.06,132.23a10.09,10.09,0,0,0,4.94,1.41c3.88,0,5.08-2.47,5-4.32,0-3.13-2.84-4.46-5.76-4.46H296.6v-2.27h1.68c2.19,0,5-1.13,5-3.77,0-1.79-1.13-3.37-3.91-3.37a8.17,8.17,0,0,0-4.46,1.48l-.79-2.2a10.67,10.67,0,0,1,5.83-1.71c4.4,0,6.39,2.61,6.39,5.32,0,2.3-1.37,4.25-4.12,5.25v.07a5.8,5.8,0,0,1,5,5.73c0,3.57-2.78,6.69-8.14,6.69a11.37,11.37,0,0,1-5.8-1.51Z" fill="#fff"/>
    <path d="M323.67,115.52a11,11,0,0,0-2.26.14,9.08,9.08,0,0,0-7.76,7.93h.1a6.66,6.66,0,0,1,5.39-2.58c3.95,0,6.73,2.85,6.73,7.21,0,4.08-2.78,7.86-7.41,7.86s-7.9-3.71-7.9-9.51a14,14,0,0,1,3.78-10,12.16,12.16,0,0,1,7.13-3.3,15.6,15.6,0,0,1,2.2-.17Zm-.86,12.87c0-3.19-1.81-5.11-4.6-5.11a5,5,0,0,0-4.32,2.74,2.65,2.65,0,0,0-.34,1.34c.07,3.67,1.75,6.38,4.91,6.38C321.06,133.74,322.81,131.58,322.81,128.39Z" fill="#fff"/>
  </g>
  <path d="M264.68,124v-2.06h17.71V124Zm0,6.73v-2.06h17.71v2.06Z" fill="#fff"/>
  <rect x="120" y="135" width="49" height="84" rx="12" ry="12" fill="none" stroke="#18ff0a" stroke-miterlimit="10" stroke-width="2"/>
  <g>
    <path d="M74.27,314.57a29.41,29.41,0,0,0,14.4,4.1c11.3,0,14.8-7.2,14.7-12.6-.1-9.11-8.3-13-16.8-13h-4.9v-6.6h4.9c6.4,0,14.5-3.3,14.5-11,0-5.2-3.3-9.8-11.4-9.8a23.87,23.87,0,0,0-13,4.3l-2.3-6.4c3.4-2.5,10-5,17-5,12.8,0,18.6,7.6,18.6,15.5,0,6.7-4,12.4-12,15.3v.2c8,1.6,14.5,7.61,14.5,16.71,0,10.4-8.1,19.5-23.7,19.5-7.3,0-13.7-2.3-16.9-4.4Z" fill="#fff"/>
    <path d="M160.57,265.86a31.78,31.78,0,0,0-6.6.4c-13.8,2.3-21.1,12.4-22.6,23.1h.3a19.37,19.37,0,0,1,15.7-7.5c11.5,0,19.6,8.3,19.6,21,0,11.9-8.1,22.9-21.6,22.9-13.9,0-23-10.8-23-27.71,0-12.8,4.6-22.9,11-29.3a35.38,35.38,0,0,1,20.8-9.6,42.25,42.25,0,0,1,6.4-.5Zm-2.5,37.51c0-9.31-5.3-14.91-13.4-14.91a14.48,14.48,0,0,0-12.6,8,7.53,7.53,0,0,0-1,3.91c.2,10.7,5.1,18.6,14.3,18.6C153,319,158.07,312.67,158.07,303.37Z" fill="#fff"/>
  </g>
  <path d="M311,151c0,79.59-51,144-114,144" fill="none" stroke="#68ff55" stroke-linecap="round" stroke-linejoin="round" stroke-width="4"/>
</svg>
